Coordinates
version=1
nRows=14
nColumns=40
inDegrees=yes

Units are S.I. units (second, meters, Newtons, ...)
If the header above contains a line with 'inDegrees', this indicates whether rotational values are in degrees (yes) or radians (no).

endheader
time	pelvis_tilt	pelvis_list	pelvis_rotation	pelvis_tx	pelvis_ty	pelvis_tz	hip_flexion_r	hip_adduction_r	hip_rotation_r	knee_angle_r	knee_angle_r_beta	ankle_angle_r	subtalar_angle_r	mtp_angle_r	hip_flexion_l	hip_adduction_l	hip_rotation_l	knee_angle_l	knee_angle_l_beta	ankle_angle_l	subtalar_angle_l	mtp_angle_l	lumbar_extension	lumbar_bending	lumbar_rotation	arm_flex_r	arm_add_r	arm_rot_r	elbow_flex_r	pro_sup_r	wrist_flex_r	wrist_dev_r	arm_flex_l	arm_add_l	arm_rot_l	elbow_flex_l	pro_sup_l	wrist_flex_l	wrist_dev_l
     11.83300000	      0.36196882	     -0.05011786	      4.90664391	      0.07180499	      1.31525029	     -0.00644927	     42.67825894	    -10.86872091	    -13.42134554	     91.80691125	      1.60233288	     -4.29720312	    -10.37210128	      0.00000000	     43.43627770	     -6.13787231	     -2.53714703	     58.61742522	      1.02306707	      7.01584071	    -20.50004930	      0.00000000	    -56.76099754	     -1.02806862	     -1.96261232	     55.43277401	     11.56987838	    -37.20907754	     35.70077211	     73.55933943	      0.00000000	      0.00000000	     59.80442609	     13.38450496	    -34.99359900	     31.13699636	      2.40451382	      0.00000000	      0.00000000
     11.85000000	      0.20547955	     -1.02891892	      3.82737354	      0.07147091	      1.31483848	     -0.00567471	     46.17111082	     -9.74105751	    -12.11755774	     96.84947210	      1.69034217	     -2.39596541	     -9.29775340	      0.00000000	     40.04073909	     -7.01024267	     -2.76525864	     53.27288770	      0.92978729	      4.52212148	    -21.52451495	      0.00000000	    -56.41960024	     -1.04040895	     -0.73761869	     55.55867468	     11.76743784	    -36.90725701	     35.63368732	     73.71611903	      0.00000000	      0.00000000	     59.53893941	     13.30726231	    -35.38637583	     31.50184113	      2.41563778	      0.00000000	      0.00000000
     11.86700000	     -0.02234220	     -1.74695884	      2.65274067	      0.07102193	      1.31438642	     -0.00460606	     49.65194678	     -8.75895734	    -10.77461200	    101.02201604	      1.76316680	     -0.20186724	     -8.57997034	      0.00000000	     37.00663518	     -7.82651369	     -3.36372539	     49.14497825	      0.85774168	      1.94726653	    -22.09292481	      0.00000000	    -56.03629833	     -1.27974755	      0.26427220	     55.73431379	     12.01278414	    -36.77100367	     35.48687164	     73.88202355	      0.00000000	      0.00000000	     59.25619904	     13.17276720	    -35.66334105	     31.82972194	      2.40326101	      0.00000000	      0.00000000
     11.88300000	     -0.32025411	     -2.11383225	      1.37590946	      0.07049116	      1.31383652	     -0.00342214	     53.26234500	     -7.96479048	     -9.17472957	    104.54678150	      1.82468556	      2.13392940	     -7.74185632	      0.00000000	     34.19881198	     -8.43122178	     -4.47736988	     45.97347048	      0.80238843	     -0.57373677	    -22.44036307	      0.00000000	    -55.60029505	     -1.83428469	      1.02925749	     55.90392945	     12.26056151	    -36.74849194	     35.30533205	     74.11712697	      0.00000000	      0.00000000	     58.98922906	     13.04151070	    -35.92227939	     32.12041197	      2.43289549	      0.00000000	      0.00000000
     11.90000000	     -0.56834958	     -2.54416803	      0.59837610	      0.07005216	      1.31325003	     -0.00274202	     56.44192595	     -7.36723680	     -8.23670882	    107.01362251	      1.86774006	      4.52939992	     -7.64657146	      0.00000000	     31.88076934	     -8.94907475	     -5.45345671	     43.86548455	      0.76559713	     -2.59396698	    -22.04033621	      0.00000000	    -55.23676116	     -2.00419510	      1.62076947	     56.06862153	     12.40450613	    -36.64001170	     35.08518248	     74.23930846	      0.00000000	      0.00000000	     58.77081204	     12.91952205	    -36.15154003	     32.37011125	      2.50744897	      0.00000000	      0.00000000
     11.91700000	     -0.83902926	     -2.60143601	     -0.26008687	      0.06983188	      1.31256487	     -0.00217866	     59.52279051	     -6.79038284	     -7.14730390	    108.36353455	      1.89130047	      6.40427770	     -7.85276240	      0.00000000	     29.84829531	     -9.20608061	     -6.95907801	     42.68181486	      0.74493820	     -3.64291777	    -21.65668401	      0.00000000	    -54.89428717	     -2.55400005	      2.04938755	     56.18065219	     12.37003096	    -36.34033872	     34.90581945	     74.40356748	      0.00000000	      0.00000000	     58.61008383	     12.87450788	    -36.36216728	     32.60552612	      2.50349724	      0.00000000	      0.00000000
     11.93300000	     -1.04437366	     -2.69022841	     -0.69451351	      0.06967422	      1.31204977	     -0.00204919	     62.16450557	     -6.38993910	     -6.57139185	    108.66020351	      1.89647832	      8.17151556	     -8.99860978	      0.00000000	     28.28386684	     -9.40345313	     -8.25075113	     42.62707873	      0.74398287	     -4.17659621	    -20.76878344	      0.00000000	    -54.66173463	     -2.81643566	      2.31462989	     56.30737797	     12.22822666	    -35.95102563	     34.69821388	     74.48500109	      0.00000000	      0.00000000	     58.51188194	     12.85553506	    -36.51767821	     32.81082468	      2.50576880	      0.00000000	      0.00000000
     11.95000000	     -1.10627744	     -2.71378660	     -0.70231487	      0.06972456	      1.31177724	     -0.00248056	     64.08030545	     -6.41794298	     -6.32261233	    108.03462732	      1.88555995	      9.76357072	    -10.14049786	      0.00000000	     27.17434829	     -9.43643112	     -9.30430735	     43.60452230	      0.76104248	     -4.15384941	    -19.93302589	      0.00000000	    -54.61956005	     -2.86368402	      2.30489507	     56.44126619	     12.12048200	    -35.72606611	     34.50768090	     74.44348197	      0.00000000	      0.00000000	     58.52890967	     12.85560376	    -36.70445391	     32.90276703	      2.62609916	      0.00000000	      0.00000000
     11.96700000	     -1.04192359	     -2.81233262	     -0.50886347	      0.06999552	      1.31158858	     -0.00330798	     65.42422009	     -6.57844629	     -6.29029551	    106.53665813	      1.85941546	     10.34781052	    -11.50974820	      0.00000000	     26.47849120	     -9.67074044	    -10.55841706	     45.74214978	      0.79835112	     -3.04726761	    -18.84928817	      0.00000000	    -54.76755262	     -2.80869700	      2.27236049	     56.53726880	     12.00228714	    -35.46154630	     34.37766231	     74.39948006	      0.00000000	      0.00000000	     58.70992723	     12.93863235	    -36.96842138	     32.97365009	      2.57706729	      0.00000000	      0.00000000
     11.98300000	     -0.85845677	     -3.14217849	     -0.12505113	      0.07026247	      1.31184783	     -0.00424859	     66.03485266	     -6.72339075	     -6.69022730	    104.00158715	      1.81517012	     10.04452380	    -13.21201140	      0.00000000	     26.23339259	    -10.28102189	    -11.62655441	     48.93017908	      0.85399273	     -1.62198985	    -17.36340658	      0.00000000	    -55.10389860	     -2.52741347	      2.36950893	     56.64170401	     11.85823574	    -35.23762895	     34.34126027	     74.27611378	      0.00000000	      0.00000000	     59.00801699	     13.12089392	    -37.28180529	     33.00361848	      2.54822762	      0.00000000	      0.00000000
     12.00000000	     -0.46345499	     -2.64188527	      0.36441068	      0.07065984	      1.31261273	     -0.00536236	     65.75344659	     -7.38311607	     -6.19784091	    100.78405172	      1.75901354	      9.91745098	    -13.53643847	      0.00000000	     26.23316975	    -10.05660843	    -12.73024700	     52.71120721	      0.91998412	     -0.99604481	    -17.09723570	      0.00000000	    -55.68417554	     -2.69061051	      1.72666653	     56.64466415	     11.84305691	    -35.17879982	     34.49260211	     74.14252623	      0.00000000	      0.00000000	     59.24385686	     13.14360101	    -37.24265449	     33.04811215	      2.94323682	      0.00000000	      0.00000000
     12.01700000	     -0.21339644	     -2.57519035	      0.77480628	      0.07087727	      1.31305073	     -0.00558655	     64.64607447	     -7.52588490	     -6.09683625	     96.46652500	      1.68365848	      9.33383159	    -13.89438918	      0.00000000	     27.18947561	    -10.55356039	    -13.27160223	     57.73173493	      1.00760886	      0.69370543	    -16.00596010	      0.00000000	    -56.01163412	     -2.58122427	      1.51464179	     56.70460313	     11.80215969	    -35.38135662	     34.46575652	     73.93762354	      0.00000000	      0.00000000	     59.57793259	     13.28460103	    -37.55307367	     32.85540482	      2.75930453	      0.00000000	      0.00000000
     12.03300000	      0.21819507	     -1.89142416	      1.15187125	      0.07117274	      1.31399751	     -0.00566443	     62.66800878	     -7.92626863	     -5.35155272	     91.35135013	      1.59438184	      8.51997884	    -13.38445413	      0.00000000	     28.39162098	    -10.59123221	    -13.96851584	     63.29841090	      1.10476568	      1.38044076	    -15.40429439	      0.00000000	    -56.56102422	     -2.86930932	      0.83286589	     56.64001184	     11.84864581	    -35.69210429	     34.66353454	     73.86880027	      0.00000000	      0.00000000	     59.81960888	     13.31994931	    -37.39756524	     32.75537637	      2.61609502	      0.00000000	      0.00000000
     12.05000000	      0.60545609	     -0.99244312	      1.52422132	      0.07133495	      1.31494577	     -0.00562913	     60.13572643	     -8.42727172	     -4.63562557	     85.88195965	      1.49892296	      7.34874930	    -12.79354391	      0.00000000	     29.93965526	    -10.42814370	    -14.44543393	     68.99375627	      1.20416821	      1.68996047	    -15.15088490	      0.00000000	    -57.06273634	     -3.28057572	     -0.04236660	     56.57996995	     11.85563035	    -35.94754500	     34.80593377	     73.82158939	      0.00000000	      0.00000000	     60.09738650	     13.29987062	    -37.22597216	     32.52848447	      2.58832987	      0.00000000	      0.00000000
